<?xml version="1.0" encoding="UTF-8" standalone="no"?>
<svg
   width="16"
   height="16"
   fill="currentColor"
   class="bi bi-brush"
   viewBox="0 0 16 16"
   version="1.1"
   id="svg1"
   sodipodi:docname="brush.svg"
   inkscape:version="1.4 (86a8ad7, 2024-10-11)"
   xmlns:inkscape="http://www.inkscape.org/namespaces/inkscape"
   xmlns:sodipodi="http://sodipodi.sourceforge.net/DTD/sodipodi-0.dtd"
   xmlns="http://www.w3.org/2000/svg"
   xmlns:svg="http://www.w3.org/2000/svg">
  <defs
     id="defs1" />
  <sodipodi:namedview
     id="namedview1"
     pagecolor="#ffffff"
     bordercolor="#000000"
     borderopacity="0.25"
     inkscape:showpageshadow="2"
     inkscape:pageopacity="0.0"
     inkscape:pagecheckerboard="0"
     inkscape:deskcolor="#d1d1d1"
     inkscape:zoom="48.3125"
     inkscape:cx="8"
     inkscape:cy="8"
     inkscape:window-width="1920"
     inkscape:window-height="991"
     inkscape:window-x="-9"
     inkscape:window-y="-9"
     inkscape:window-maximized="1"
     inkscape:current-layer="svg1" />
  <path
     d="m 15.825,0.12 c 0.168572,0.14389516 0.222298,0.38159302 0.132,0.584 -1.53,3.43 -4.743,8.17 -7.095,10.64 -0.6600351,0.690015 -1.4728399,1.215443 -2.373,1.534 -0.018,0.227 -0.06,0.538 -0.16,0.868 -0.201,0.659 -0.667,1.479 -1.708,1.74 C 3.6128931,15.726511 2.5679964,15.771321 1.543,15.618 1.3526563,15.586611 1.1648328,15.541493 0.981,15.483 0.81142096,15.430933 0.65328199,15.347113 0.515,15.236 0.42351794,15.158999 0.3532857,15.059848 0.311,14.948 0.25773018,14.80488 0.25915451,14.647135 0.315,14.505 0.41,14.26 0.631,14.125 0.776,14.053 1.17,13.856 1.401,13.6 1.643,13.227 1.738,13.083 1.827,12.93 1.93,12.755 l 0.117,-0.198 c 0.151,-0.255 0.326,-0.54 0.546,-0.848 0.528,-0.739 1.201,-0.925 1.746,-0.896 0.1266667,0.008 0.2426667,0.024 0.348,0.048 0.062,-0.172 0.142,-0.38 0.238,-0.608 0.261,-0.619 0.658,-1.419 1.187,-2.069 2.176,-2.67 6.18,-6.206 9.117,-8.104 0.185676,-0.11984382 0.428004,-0.1035802 0.596,0.04 M 4.705,11.912 c -0.1324915,-0.05833 -0.2744448,-0.09221 -0.419,-0.1 -0.246,-0.013 -0.573,0.05 -0.879,0.479 -0.197,0.275 -0.355,0.532 -0.5,0.777 l -0.105,0.177 c -0.106,0.181 -0.213,0.362 -0.32,0.528 -0.2026789,0.328018 -0.4596777,0.619171 -0.76,0.861 0.69,0.112 1.736,0.111 2.657,-0.12 0.559,-0.139 0.843,-0.569 0.993,-1.06 0.073646,-0.243643 0.1159863,-0.495667 0.126,-0.75 z m 1.44,0.026 c 0.12,-0.04 0.277,-0.1 0.458,-0.183 0.5756824,-0.267913 1.096272,-0.640974 1.535,-1.1 1.9,-1.996 6.192078,-6.7498189 7.273216,-10.03850323 C 11.993273,2.3158124 8.624,6.684 6.888,8.816 6.446,9.359 6.093,10.059 5.846,10.642 5.725,10.93 5.632,11.182 5.571,11.362 v 10e-4 l 0.575,0.575 z m -4.973,3.04 0.007,-0.005 z m 3.582,-3.043 0.002,10e-4 H 4.754 Z"
     id="path1"
     sodipodi:nodetypes="cccccccccccccccccccccccccccccccccccccccccccccccccc" />
  <path
     style="fill:none;stroke:#000000;stroke-width:0.15;stroke-linecap:round;stroke-linejoin:round;stroke-dasharray:none"
     d="M 4.6571798,11.92238 C 3.1013656,12.272651 3.7514244,13.947729 2.3803364,14.240621"
     id="path2"
     sodipodi:nodetypes="cc" />
  <path
     style="fill:none;stroke:#000000;stroke-width:0.1;stroke-linecap:round;stroke-linejoin:round;stroke-dasharray:none"
     d="m 5.3768434,12.1 c -0.803622,0.53421 0.2085819,0.612075 -1.4695989,1.552394"
     id="path2-8"
     sodipodi:nodetypes="cc" />
</svg>
