<?xml version="1.0" encoding="UTF-8" standalone="no"?>
<svg
   width="16"
   height="16"
   fill="currentColor"
   class="bi bi-dpad"
   viewBox="0 0 16 16"
   version="1.1"
   id="svg2"
   sodipodi:docname="dpad.svg"
   inkscape:version="1.4 (86a8ad7, 2024-10-11)"
   xmlns:inkscape="http://www.inkscape.org/namespaces/inkscape"
   xmlns:sodipodi="http://sodipodi.sourceforge.net/DTD/sodipodi-0.dtd"
   xmlns="http://www.w3.org/2000/svg"
   xmlns:svg="http://www.w3.org/2000/svg">
  <defs
     id="defs2" />
  <sodipodi:namedview
     id="namedview2"
     pagecolor="#ffffff"
     bordercolor="#000000"
     borderopacity="0.25"
     inkscape:showpageshadow="2"
     inkscape:pageopacity="0.0"
     inkscape:pagecheckerboard="0"
     inkscape:deskcolor="#d1d1d1"
     inkscape:zoom="48.3125"
     inkscape:cx="8"
     inkscape:cy="8"
     inkscape:window-width="1920"
     inkscape:window-height="991"
     inkscape:window-x="-9"
     inkscape:window-y="-9"
     inkscape:window-maximized="1"
     inkscape:current-layer="svg2" />
  <path
     d="m7.788 2.34-.799 1.278A.25.25 0 0 0 7.201 4h1.598a.25.25 0 0 0 .212-.382l-.799-1.279a.25.25 0 0 0-.424 0Zm0 11.32-.799-1.277A.25.25 0 0 1 7.201 12h1.598a.25.25 0 0 1 .212.383l-.799 1.278a.25.25 0 0 1-.424 0ZM3.617 9.01 2.34 8.213a.25.25 0 0 1 0-.424l1.278-.799A.25.25 0 0 1 4 7.201V8.8a.25.25 0 0 1-.383.212Zm10.043-.798-1.277.799A.25.25 0 0 1 12 8.799V7.2a.25.25 0 0 1 .383-.212l1.278.799a.25.25 0 0 1 0 .424Z"
     id="path1" />
  <path
     d="M6.5 0A1.5 1.5 0 0 0 5 1.5v3a.5.5 0 0 1-.5.5h-3A1.5 1.5 0 0 0 0 6.5v3A1.5 1.5 0 0 0 1.5 11h3a.5.5 0 0 1 .5.5v3A1.5 1.5 0 0 0 6.5 16h3a1.5 1.5 0 0 0 1.5-1.5v-3a.5.5 0 0 1 .5-.5h3A1.5 1.5 0 0 0 16 9.5v-3A1.5 1.5 0 0 0 14.5 5h-3a.5.5 0 0 1-.5-.5v-3A1.5 1.5 0 0 0 9.5 0zM6 1.5a.5.5 0 0 1 .5-.5h3a.5.5 0 0 1 .5.5v3A1.5 1.5 0 0 0 11.5 6h3a.5.5 0 0 1 .5.5v3a.5.5 0 0 1-.5.5h-3a1.5 1.5 0 0 0-1.5 1.5v3a.5.5 0 0 1-.5.5h-3a.5.5 0 0 1-.5-.5v-3A1.5 1.5 0 0 0 4.5 10h-3a.5.5 0 0 1-.5-.5v-3a.5.5 0 0 1 .5-.5h3A1.5 1.5 0 0 0 6 4.5z"
     id="path2" />
  <rect
     style="fill:none;stroke:#000000;stroke-width:0.3;stroke-linecap:round;stroke-linejoin:round"
     id="rect2"
     width="3.0012937"
     height="2.4424322"
     x="6.5821476"
     y="6.6235447" />
</svg>
