<?xml version="1.0" encoding="UTF-8" standalone="no"?>
<svg
   width="16"
   height="16"
   fill="currentColor"
   class="bi bi-film"
   viewBox="0 0 16 16"
   version="1.1"
   id="svg1"
   sodipodi:docname="film.svg"
   inkscape:version="1.4 (86a8ad7, 2024-10-11)"
   xmlns:inkscape="http://www.inkscape.org/namespaces/inkscape"
   xmlns:sodipodi="http://sodipodi.sourceforge.net/DTD/sodipodi-0.dtd"
   xmlns="http://www.w3.org/2000/svg"
   xmlns:svg="http://www.w3.org/2000/svg">
  <defs
     id="defs1" />
  <sodipodi:namedview
     id="namedview1"
     pagecolor="#ffffff"
     bordercolor="#000000"
     borderopacity="0.25"
     inkscape:showpageshadow="2"
     inkscape:pageopacity="0.0"
     inkscape:pagecheckerboard="0"
     inkscape:deskcolor="#d1d1d1"
     inkscape:zoom="48.3125"
     inkscape:cx="8"
     inkscape:cy="8"
     inkscape:window-width="1920"
     inkscape:window-height="991"
     inkscape:window-x="-9"
     inkscape:window-y="-9"
     inkscape:window-maximized="1"
     inkscape:current-layer="svg1" />
  <path
     d="M0 1a1 1 0 0 1 1-1h14a1 1 0 0 1 1 1v14a1 1 0 0 1-1 1H1a1 1 0 0 1-1-1zm4 0v6h8V1zm8 8H4v6h8zM1 1v2h2V1zm2 3H1v2h2zM1 7v2h2V7zm2 3H1v2h2zm-2 3v2h2v-2zM15 1h-2v2h2zm-2 3v2h2V4zm2 3h-2v2h2zm-2 3v2h2v-2zm2 3h-2v2h2z"
     id="path1" />
  <path
     style="fill:none;stroke:#000000;stroke-width:0.1;stroke-linecap:round;stroke-linejoin:round"
     d="M 5.8576973,12.771022 C 8.9210867,9.5213454 8.9210867,9.5213454 8.9210867,9.5213454"
     id="path2" />
  <path
     style="fill:none;stroke:#000000;stroke-width:0.1;stroke-linecap:round;stroke-linejoin:round"
     d="M 7.6851876,12.119858 9.5687581,10.153493"
     id="path2-8"
     sodipodi:nodetypes="cc" />
  <path
     style="fill:none;stroke:#000000;stroke-width:0.1;stroke-linecap:round;stroke-linejoin:round"
     d="m 4.4212807,4.9995476 c 3.063389,-3.249677 3.063389,-3.249677 3.063389,-3.249677"
     id="path2-8-5" />
  <path
     style="fill:none;stroke:#000000;stroke-width:0.1;stroke-linecap:round;stroke-linejoin:round"
     d="M 5.2078266,5.154787 7.174191,3.0642303"
     id="path2-8-5-1"
     sodipodi:nodetypes="cc" />
</svg>
