<?xml version="1.0" encoding="UTF-8" standalone="no"?>
<svg
   width="16"
   height="16"
   fill="currentColor"
   class="bi bi-headset-vr"
   viewBox="0 0 16 16"
   version="1.1"
   id="svg2"
   sodipodi:docname="headset-vr.svg"
   inkscape:version="1.4 (86a8ad7, 2024-10-11)"
   xmlns:inkscape="http://www.inkscape.org/namespaces/inkscape"
   xmlns:sodipodi="http://sodipodi.sourceforge.net/DTD/sodipodi-0.dtd"
   xmlns="http://www.w3.org/2000/svg"
   xmlns:svg="http://www.w3.org/2000/svg">
  <defs
     id="defs2" />
  <sodipodi:namedview
     id="namedview2"
     pagecolor="#ffffff"
     bordercolor="#000000"
     borderopacity="0.25"
     inkscape:showpageshadow="2"
     inkscape:pageopacity="0.0"
     inkscape:pagecheckerboard="0"
     inkscape:deskcolor="#d1d1d1"
     inkscape:zoom="48.3125"
     inkscape:cx="8"
     inkscape:cy="7.9793014"
     inkscape:window-width="1920"
     inkscape:window-height="991"
     inkscape:window-x="-9"
     inkscape:window-y="-9"
     inkscape:window-maximized="1"
     inkscape:current-layer="svg2" />
  <path
     d="M8 1.248c1.857 0 3.526.641 4.65 1.794a5 5 0 0 1 2.518 1.09C13.907 1.482 11.295 0 8 0 4.75 0 2.12 1.48.844 4.122a5 5 0 0 1 2.289-1.047C4.236 1.872 5.974 1.248 8 1.248"
     id="path1" />
  <path
     d="M12 12a4 4 0 0 1-2.786-1.13l-.002-.002a1.6 1.6 0 0 0-.276-.167A2.2 2.2 0 0 0 8 10.5c-.414 0-.729.103-.935.201a1.6 1.6 0 0 0-.277.167l-.002.002A4 4 0 1 1 4 4h8a4 4 0 0 1 0 8"
     id="path2"
     style="fill:#000000;fill-opacity:1;stroke:#000000;stroke-opacity:1;stroke-width:0.1;stroke-dasharray:none" />
  <path
     d="M 11.88093,10.339532 A 3.8741862,2.8184908 0 0 1 9.182561,9.5433075 l -0.00193,-0.00142 A 1.5496745,1.1273963 0 0 0 8.9133052,9.4242264 2.1308025,1.5501698 0 0 0 8.0067454,9.2825975 c -0.4009782,0 -0.7060704,0.072577 -0.905591,0.1416289 A 1.5496745,1.1273963 0 0 0 6.832867,9.5418987 l -0.00193,0.00142 A 3.8741862,2.8184908 0 1 1 4.1325592,4.7025498 H 11.88093 a 3.8741868,2.8184912 0 0 1 0,5.6369822"
     id="path2-9"
     style="fill:#ffffff;fill-opacity:1;stroke:#000000;stroke-width:0.0826112;stroke-dasharray:none;stroke-opacity:1" />
  <ellipse
     style="fill:#ffffff;fill-opacity:1;stroke:none;stroke-width:0.1;stroke-linecap:round;stroke-linejoin:round;stroke-dasharray:none;stroke-opacity:1"
     id="path3"
     cx="2.2354462"
     cy="10.825356"
     rx="0.4553687"
     ry="0.35187581" />
  <ellipse
     style="fill:#ffffff;fill-opacity:1;stroke:none;stroke-width:0.1;stroke-linecap:round;stroke-linejoin:round;stroke-dasharray:none;stroke-opacity:1"
     id="path3-4"
     cx="13.104787"
     cy="10.95084"
     rx="0.4553687"
     ry="0.35187581" />
</svg>
