<?xml version="1.0" encoding="UTF-8" standalone="no"?>
<svg
   width="16"
   height="16"
   fill="currentColor"
   class="bi bi-music-note-list"
   viewBox="0 0 16 16"
   version="1.1"
   id="svg4"
   sodipodi:docname="music-note-list.svg"
   inkscape:version="1.4 (86a8ad7, 2024-10-11)"
   xmlns:inkscape="http://www.inkscape.org/namespaces/inkscape"
   xmlns:sodipodi="http://sodipodi.sourceforge.net/DTD/sodipodi-0.dtd"
   xmlns="http://www.w3.org/2000/svg"
   xmlns:svg="http://www.w3.org/2000/svg">
  <defs
     id="defs4" />
  <sodipodi:namedview
     id="namedview4"
     pagecolor="#ffffff"
     bordercolor="#000000"
     borderopacity="0.25"
     inkscape:showpageshadow="2"
     inkscape:pageopacity="0.0"
     inkscape:pagecheckerboard="0"
     inkscape:deskcolor="#d1d1d1"
     inkscape:zoom="48.3125"
     inkscape:cx="8"
     inkscape:cy="8"
     inkscape:window-width="1920"
     inkscape:window-height="991"
     inkscape:window-x="-9"
     inkscape:window-y="-9"
     inkscape:window-maximized="1"
     inkscape:current-layer="svg4" />
  <path
     d="M12 13c0 1.105-1.12 2-2.5 2S7 14.105 7 13s1.12-2 2.5-2 2.5.895 2.5 2"
     id="path1" />
  <path
     d="m 12.847348,13.014232 c 0,1.402334 -1.486282,2.538162 -3.3175934,2.538162 -1.8313122,0 -3.3175942,-1.135828 -3.3175942,-2.538162 0,-1.402336 1.486282,-2.538164 3.3175942,-2.538164"
     id="path1-0"
     style="fill:none;stroke:#000000;stroke-width:0.4;stroke-dasharray:none;stroke-opacity:1"
     sodipodi:nodetypes="cssc" />
  <path
     fill-rule="evenodd"
     d="M12 3v10h-1V3z"
     id="path2" />
  <path
     d="M11 2.82a1 1 0 0 1 .804-.98l3-.6A1 1 0 0 1 16 2.22V4l-5 1z"
     id="path3" />
  <path
     fill-rule="evenodd"
     d="M 0,11.5 C 0,11.223858 0.22385763,11 0.5,11 H 4 c 0.6666664,0 0.6666664,1 0,1 H 0.5 C 0.22385763,12 0,11.776142 0,11.5 m 0,-4 C 0,7.2238576 0.22385763,7 0.5,7 H 8 C 8.6666664,7 8.6666664,8 8,8 H 0.5 C 0.22385763,8 0,7.7761424 0,7.5 m 0,-4 C 0,3.2238576 0.22385763,3 0.5,3 H 8 C 8.6666664,3 8.6666664,4 8,4 H 0.5 C 0.22385763,4 0,3.7761424 0,3.5"
     id="path4"
     sodipodi:nodetypes="cssssccssssccssssc" />
  <path
     style="fill:none;stroke:#000000;stroke-width:0.15;stroke-linecap:round;stroke-linejoin:round;stroke-dasharray:0.6,0.15;stroke-dashoffset:0;stroke-opacity:1"
     d="M 0.26908149,9.3350582 H 8.0931436"
     id="path5"
     sodipodi:nodetypes="cc" />
  <path
     style="fill:none;stroke:#000000;stroke-width:0.15;stroke-linecap:round;stroke-linejoin:round;stroke-dasharray:0.6,0.15;stroke-dashoffset:0;stroke-opacity:1"
     d="M 0.33845408,5.6062419 H 8.1625162"
     id="path5-4"
     sodipodi:nodetypes="cc" />
</svg>
