<?xml version="1.0" encoding="UTF-8" standalone="no"?>
<svg
   width="16"
   height="16"
   fill="currentColor"
   class="bi bi-phone"
   viewBox="0 0 16 16"
   version="1.1"
   id="svg2"
   sodipodi:docname="phone.svg"
   inkscape:version="1.4 (86a8ad7, 2024-10-11)"
   xmlns:inkscape="http://www.inkscape.org/namespaces/inkscape"
   xmlns:sodipodi="http://sodipodi.sourceforge.net/DTD/sodipodi-0.dtd"
   xmlns="http://www.w3.org/2000/svg"
   xmlns:svg="http://www.w3.org/2000/svg">
  <defs
     id="defs2" />
  <sodipodi:namedview
     id="namedview2"
     pagecolor="#ffffff"
     bordercolor="#000000"
     borderopacity="0.25"
     inkscape:showpageshadow="2"
     inkscape:pageopacity="0.0"
     inkscape:pagecheckerboard="0"
     inkscape:deskcolor="#d1d1d1"
     inkscape:zoom="48.3125"
     inkscape:cx="5.0815006"
     inkscape:cy="8.3518758"
     inkscape:window-width="1920"
     inkscape:window-height="991"
     inkscape:window-x="-9"
     inkscape:window-y="-9"
     inkscape:window-maximized="1"
     inkscape:current-layer="svg2" />
  <path
     d="M11 1a1 1 0 0 1 1 1v12a1 1 0 0 1-1 1H5a1 1 0 0 1-1-1V2a1 1 0 0 1 1-1zM5 0a2 2 0 0 0-2 2v12a2 2 0 0 0 2 2h6a2 2 0 0 0 2-2V2a2 2 0 0 0-2-2z"
     id="path1" />
  <path
     d="m 8,14.761077 a 1,1 0 1 0 0,-2 1,1 0 0 0 0,2"
     id="path2" />
  <path
     style="fill:none;stroke:#000000;stroke-width:0.338726;stroke-linecap:round;stroke-linejoin:round;stroke-dasharray:none;stroke-opacity:1"
     d="M 4.5272397,1.5907314 V 11.633936 H 11.498481 V 1.6364863 Z"
     id="path3"
     sodipodi:nodetypes="ccccc" />
  <path
     style="fill:none;stroke:#000000;stroke-width:0.3;stroke-linecap:round;stroke-linejoin:round;stroke-dasharray:none;stroke-opacity:1"
     d="M 5.2689975,8.0791294 C 8.0791294,2.7515875 8.1376739,2.7515875 8.1376739,2.7515875 v 0 z"
     id="path4" />
  <path
     style="fill:none;stroke:#000000;stroke-width:0.245715;stroke-linecap:round;stroke-linejoin:round;stroke-dasharray:none;stroke-opacity:1"
     d="m 6.2559162,8.1741486 c 2.2896832,-4.386324 2.337385,-4.386324 2.337385,-4.386324 v 0 z"
     id="path4-0" />
</svg>
